<svg xmlns="http://www.w3.org/2000/svg" viewBox="0 0 1280 680" width="1280" height="680" font-family="-apple-system, BlinkMacSystemFont, 'Segoe UI', Roboto, Helvetica, Arial, sans-serif">
  <defs>
    <pattern id="grid" width="64" height="64" patternUnits="userSpaceOnUse">
      <path d="M 64 0 L 0 0 0 64" fill="none" stroke="#1a1a1a" stroke-width="1"/>
    </pattern>
    <radialGradient id="hubglow" cx="50%" cy="50%" r="50%">
      <stop offset="0%" stop-color="#fecaca" stop-opacity="0.95"/>
      <stop offset="40%" stop-color="#ef4444" stop-opacity="1"/>
      <stop offset="100%" stop-color="#7f1d1d" stop-opacity="1"/>
    </radialGradient>
    <radialGradient id="vignette" cx="50%" cy="50%" r="75%">
      <stop offset="0%" stop-color="#0a0a0a" stop-opacity="0"/>
      <stop offset="100%" stop-color="#000000" stop-opacity="0.75"/>
    </radialGradient>
    <filter id="glow" x="-50%" y="-50%" width="200%" height="200%">
      <feGaussianBlur stdDeviation="6" result="blur"/>
      <feMerge>
        <feMergeNode in="blur"/>
        <feMergeNode in="SourceGraphic"/>
      </feMerge>
    </filter>
  </defs>

  <!-- background -->
  <rect width="1280" height="680" fill="#0a0a0a"/>
  <rect width="1280" height="680" fill="url(#grid)"/>
  <rect width="1280" height="680" fill="url(#vignette)"/>

  <!-- ============= TOP BAND: branding ============= -->
  <!-- accent burst (small, red) -->
  <g transform="translate(110, 110)" stroke="#DC2626" stroke-linecap="round">
    <line x1="0" y1="0" x2="0"   y2="-65" stroke-width="9"/>
    <line x1="0" y1="0" x2="33"  y2="-56" stroke-width="9"/>
    <line x1="0" y1="0" x2="56"  y2="-33" stroke-width="9"/>
    <line x1="0" y1="0" x2="65"  y2="0"   stroke-width="9"/>
    <line x1="0" y1="0" x2="56"  y2="33"  stroke-width="9"/>
    <line x1="0" y1="0" x2="33"  y2="56"  stroke-width="9"/>
    <line x1="0" y1="0" x2="0"   y2="65"  stroke-width="9"/>
    <line x1="0" y1="0" x2="-33" y2="56"  stroke-width="9"/>
    <line x1="0" y1="0" x2="-56" y2="33"  stroke-width="9"/>
    <line x1="0" y1="0" x2="-65" y2="0"   stroke-width="9"/>
    <line x1="0" y1="0" x2="-56" y2="-33" stroke-width="9"/>
    <line x1="0" y1="0" x2="-33" y2="-56" stroke-width="9"/>
    <circle cx="0" cy="0" r="9" fill="#DC2626" stroke="none"/>
  </g>

  <!-- wordmark -->
  <g transform="translate(220, 135)">
    <text x="0" y="0" font-size="78" font-weight="700" fill="#f1f5f9" letter-spacing="-2">claude</text>
    <text x="265" y="0" font-size="78" font-weight="700" fill="#DC2626" letter-spacing="-2">osint</text>
    <line x1="0" y1="16" x2="495" y2="16" stroke="#DC2626" stroke-width="3"/>
    <text x="0" y="46" font-size="18" font-weight="400" fill="#94a3b8" letter-spacing="0.3">External red-team OSINT &amp; bug-bounty recon — Claude in god mode</text>
  </g>

  <!-- top-right meta -->
  <g transform="translate(1230, 105)" font-family="ui-monospace, 'SF Mono', Menlo, monospace">
    <text x="0" y="0" text-anchor="end" font-size="13" fill="#64748b">v2.1.1 · MIT</text>
    <text x="0" y="20" text-anchor="end" font-size="13" fill="#64748b">by ElementalSoul</text>
    <text x="0" y="40" text-anchor="end" font-size="13" fill="#64748b">github.com/elementalsouls/Claude-OSINT</text>
  </g>

  <!-- ============= MIDDLE BAND: capability constellation ============= -->
  <!-- subtle orbit ring -->
  <circle cx="640" cy="375" r="205" fill="none" stroke="#dc2626" stroke-width="1" stroke-opacity="0.15"/>
  <circle cx="640" cy="375" r="120" fill="none" stroke="#dc2626" stroke-width="1" stroke-opacity="0.10"/>

  <!-- connecting lines from hub to each node (drawn behind nodes) -->
  <g stroke="#dc2626" stroke-width="1.5" stroke-opacity="0.45" stroke-dasharray="5,4">
    <line x1="640" y1="375" x2="840" y2="375"/>
    <line x1="640" y1="375" x2="785" y2="520"/>
    <line x1="640" y1="375" x2="640" y2="580"/>
    <line x1="640" y1="375" x2="495" y2="520"/>
    <line x1="640" y1="375" x2="435" y2="375"/>
    <line x1="640" y1="375" x2="495" y2="230"/>
    <line x1="640" y1="375" x2="640" y2="170"/>
    <line x1="640" y1="375" x2="785" y2="230"/>
  </g>

  <!-- HUB: Claude AI brain -->
  <g transform="translate(640, 375)" filter="url(#glow)">
    <circle cx="0" cy="0" r="60" fill="url(#hubglow)" stroke="#dc2626" stroke-width="2"/>
    <!-- 8-spoke asterisk (Claude/Anthropic visual) -->
    <g stroke="#ffffff" stroke-linecap="round" stroke-width="3.5">
      <line x1="0" y1="-30" x2="0" y2="30"/>
      <line x1="-30" y1="0" x2="30" y2="0"/>
      <line x1="-21" y1="-21" x2="21" y2="21"/>
      <line x1="-21" y1="21" x2="21" y2="-21"/>
    </g>
    <circle cx="0" cy="0" r="5" fill="#ffffff"/>
  </g>
  <text x="640" y="465" text-anchor="middle" font-size="13" font-weight="700" fill="#f1f5f9" letter-spacing="3">CLAUDE</text>
  <text x="640" y="482" text-anchor="middle" font-size="10" font-weight="400" fill="#94a3b8" letter-spacing="2">AI · OSINT operator</text>

  <!-- 8 capability nodes (rounded rects) -->
  <!-- 0° (E) -->
  <g transform="translate(750, 345)">
    <rect width="180" height="60" rx="10" fill="#0f172a" stroke="#dc2626" stroke-width="1.5"/>
    <text x="90" y="26" text-anchor="middle" font-size="15" font-weight="700" fill="#f1f5f9">M365 / Entra</text>
    <text x="90" y="46" text-anchor="middle" font-size="11" fill="#94a3b8">tenant GUID · SharePoint · OWA</text>
  </g>
  <!-- 45° (SE) -->
  <g transform="translate(695, 490)">
    <rect width="180" height="60" rx="10" fill="#0f172a" stroke="#dc2626" stroke-width="1.5"/>
    <text x="90" y="26" text-anchor="middle" font-size="15" font-weight="700" fill="#f1f5f9">AWS</text>
    <text x="90" y="46" text-anchor="middle" font-size="11" fill="#94a3b8">STS · IAM enum · S3 buckets</text>
  </g>
  <!-- 90° (S) -->
  <g transform="translate(550, 550)">
    <rect width="180" height="60" rx="10" fill="#0f172a" stroke="#dc2626" stroke-width="1.5"/>
    <text x="90" y="26" text-anchor="middle" font-size="15" font-weight="700" fill="#f1f5f9">GitHub</text>
    <text x="90" y="46" text-anchor="middle" font-size="11" fill="#94a3b8">PAT scope · code dorks · secrets</text>
  </g>
  <!-- 135° (SW) -->
  <g transform="translate(405, 490)">
    <rect width="180" height="60" rx="10" fill="#0f172a" stroke="#dc2626" stroke-width="1.5"/>
    <text x="90" y="26" text-anchor="middle" font-size="15" font-weight="700" fill="#f1f5f9">GraphQL</text>
    <text x="90" y="46" text-anchor="middle" font-size="11" fill="#94a3b8">introspection · field-suggestion</text>
  </g>
  <!-- 180° (W) -->
  <g transform="translate(345, 345)">
    <rect width="180" height="60" rx="10" fill="#0f172a" stroke="#dc2626" stroke-width="1.5"/>
    <text x="90" y="26" text-anchor="middle" font-size="15" font-weight="700" fill="#f1f5f9">Kubernetes</text>
    <text x="90" y="46" text-anchor="middle" font-size="11" fill="#94a3b8">kubelet · etcd · K8s API</text>
  </g>
  <!-- 225° (NW) -->
  <g transform="translate(405, 200)">
    <rect width="180" height="60" rx="10" fill="#0f172a" stroke="#dc2626" stroke-width="1.5"/>
    <text x="90" y="26" text-anchor="middle" font-size="15" font-weight="700" fill="#f1f5f9">Citrix · F5 · Fortinet</text>
    <text x="90" y="46" text-anchor="middle" font-size="11" fill="#94a3b8">vendor fingerprint · KEV CVEs</text>
  </g>
  <!-- 270° (N) -->
  <g transform="translate(550, 140)">
    <rect width="180" height="60" rx="10" fill="#0f172a" stroke="#dc2626" stroke-width="1.5"/>
    <text x="90" y="26" text-anchor="middle" font-size="15" font-weight="700" fill="#f1f5f9">Anthropic · OpenAI</text>
    <text x="90" y="46" text-anchor="middle" font-size="11" fill="#94a3b8">key catalog · validators</text>
  </g>
  <!-- 315° (NE) -->
  <g transform="translate(695, 200)">
    <rect width="180" height="60" rx="10" fill="#0f172a" stroke="#dc2626" stroke-width="1.5"/>
    <text x="90" y="26" text-anchor="middle" font-size="15" font-weight="700" fill="#f1f5f9">HudsonRock · Wayback</text>
    <text x="90" y="46" text-anchor="middle" font-size="11" fill="#94a3b8">breach corpus · CDX archive</text>
  </g>

  <!-- secondary capability badges (small, outer ring hints) -->
  <g font-size="11" fill="#475569" font-family="ui-monospace, monospace">
    <text x="970" y="380" text-anchor="start">+ Slack · Discord</text>
    <text x="970" y="400" text-anchor="start">+ Postman PMAK</text>
    <text x="970" y="420" text-anchor="start">+ Atlassian · DataDog</text>

    <text x="305" y="380" text-anchor="end">LinkedIn enum +</text>
    <text x="305" y="400" text-anchor="end">Job posting analysis +</text>
    <text x="305" y="420" text-anchor="end">Sat imagery +</text>
  </g>

  <!-- ============= BOTTOM BAND: stat ribbon ============= -->
  <g transform="translate(0, 605)">
    <rect x="40" y="0" width="1200" height="50" rx="10" fill="#0f172a" stroke="#dc2626" stroke-width="1" stroke-opacity="0.6"/>
    <g font-size="14" font-weight="500" fill="#f1f5f9">
      <text x="80"  y="32" font-size="20" font-weight="700" fill="#dc2626">90+</text>
      <text x="128" y="32">MODULES</text>

      <text x="265" y="32" font-size="20" font-weight="700" fill="#dc2626">48</text>
      <text x="295" y="32">SECRET PATTERNS</text>

      <text x="475" y="32" font-size="20" font-weight="700" fill="#dc2626">80+</text>
      <text x="523" y="32">DORKS</text>

      <text x="615" y="32" font-size="20" font-weight="700" fill="#dc2626">9</text>
      <text x="640" y="32">VALIDATORS</text>

      <text x="775" y="32" font-size="20" font-weight="700" fill="#dc2626">27</text>
      <text x="810" y="32">ATTACK PATHS</text>

      <text x="965" y="32" font-size="20" font-weight="700" fill="#dc2626">5,500+</text>
      <text x="1055" y="32">LINES OF TRADECRAFT</text>
    </g>
  </g>

  <!-- footer tagline -->
  <text x="640" y="670" text-anchor="middle" font-size="11" fill="#475569" letter-spacing="2">METHODOLOGY + ARSENAL · PAIRED · PRODUCTION-READY</text>
</svg>
